<svg width="512" height="512" viewBox="0 0 512 512" fill="none" xmlns="http://www.w3.org/2000/svg">
<rect width="512" height="512" fill="#000814"/>
<path d="M253.698 358.8C245.165 358.8 236.498 358.533 227.698 358C218.898 357.733 210.231 357.067 201.698 356C182.765 354.4 173.298 348.267 173.298 337.6C173.298 332.267 175.431 325.867 179.698 318.4C189.831 300 200.231 281.733 210.898 263.6C221.565 245.2 232.098 226.8 242.498 208.4C245.698 202.533 249.831 195.2 254.898 186.4C259.965 177.6 265.031 169.2 270.098 161.2C272.498 157.467 275.965 153.733 280.498 150C285.031 146 289.698 143.467 294.498 142.4C288.898 142.667 281.698 143.067 272.898 143.6C264.365 144.133 255.565 145.2 246.498 146.8C237.698 148.133 229.698 150.4 222.498 153.6C215.565 156.533 210.631 160.667 207.698 166C206.631 168.4 205.698 170.8 204.898 173.2C204.098 175.6 203.698 178 203.698 180.4C203.698 186.533 205.831 190.933 210.098 193.6C210.365 193.6 210.498 193.867 210.498 194.4C210.498 194.933 209.965 195.467 208.898 196C208.098 196.533 207.298 196.667 206.498 196.4C204.098 195.067 201.165 191.867 197.698 186.8C194.231 181.467 192.098 177.067 191.298 173.6C190.498 170.4 190.098 167.467 190.098 164.8C190.098 157.867 192.365 152.533 196.898 148.8C201.431 144.8 207.165 142 214.098 140.4C221.031 138.533 228.098 137.467 235.298 137.2C242.498 136.667 248.898 136.4 254.498 136.4C268.631 136.4 282.765 136.267 296.898 136C311.031 135.467 325.031 135.2 338.898 135.2C345.031 135.2 351.031 135.2 356.898 135.2C363.031 135.2 369.031 135.467 374.898 136C381.565 136.267 386.098 137.6 388.498 140C391.165 142.4 392.498 145.333 392.498 148.8C392.498 153.067 391.031 158 388.098 163.6C385.431 168.933 382.898 173.867 380.498 178.4C379.431 180.533 377.698 182.133 375.298 183.2C372.898 184 371.965 183.2 372.498 180.8C373.831 175.467 374.498 170.133 374.498 164.8C374.498 160 373.565 155.733 371.698 152C370.098 148 366.898 145.2 362.098 143.6C357.565 142.267 350.498 141.6 340.898 141.6C337.431 141.6 333.831 141.733 330.098 142C326.631 142 323.031 142.133 319.298 142.4C308.631 143.2 301.431 146 297.698 150.8C288.898 163.067 280.365 176.4 272.098 190.8C264.098 204.933 256.365 218.4 248.898 231.2C248.631 231.733 248.498 232.4 248.498 233.2C248.498 234.8 249.698 235.6 252.098 235.6C261.431 235.6 271.431 235.733 282.098 236C293.031 236.267 302.631 236.267 310.898 236C312.765 235.733 315.565 235.467 319.298 235.2C323.298 234.933 327.298 234.4 331.298 233.6C335.565 232.8 338.765 231.867 340.898 230.8C342.231 230 343.031 229.6 343.298 229.6C344.898 229.6 344.898 231.2 343.298 234.4C341.965 237.333 339.565 240.4 336.098 243.6C332.898 246.533 329.165 248 324.898 248C311.831 248 300.765 247.733 291.698 247.2C282.898 246.667 273.031 246.4 262.098 246.4C259.431 246.4 256.631 246.4 253.698 246.4C250.765 246.4 247.565 246.533 244.098 246.8C241.431 247.067 239.565 248.133 238.498 250C235.831 254.8 233.431 259.2 231.298 263.2C229.431 267.2 227.031 271.867 224.098 277.2C221.965 281.2 219.298 286.4 216.098 292.8C213.165 298.933 210.498 305.333 208.098 312C205.698 318.4 204.498 324 204.498 328.8C204.498 337.067 208.365 342.8 216.098 346C223.831 348.933 233.298 350.533 244.498 350.8C259.965 350.8 275.165 349.333 290.098 346.4C305.298 343.2 319.431 338 332.498 330.8C345.831 323.333 357.431 313.333 367.298 300.8C367.831 300.267 368.231 300 368.498 300C369.298 300 369.831 300.8 370.098 302.4C370.365 303.733 370.231 304.8 369.698 305.6C361.431 315.733 353.431 325.6 345.698 335.2C337.965 344.533 330.231 350.4 322.498 352.8C316.898 354.4 307.831 355.733 295.298 356.8C282.765 358.133 268.898 358.8 253.698 358.8Z" fill="#FACC15"/>
</svg>
